<?xml version="1.0" standalone="no"?>
<!DOCTYPE svg PUBLIC "-//W3C//DTD SVG 20010904//EN"
 "http://www.w3.org/TR/2001/REC-SVG-20010904/DTD/svg10.dtd">
<svg version="1.0" xmlns="http://www.w3.org/2000/svg"
 width="300.000000pt" height="300.000000pt" viewBox="0 0 300.000000 300.000000"
 preserveAspectRatio="xMidYMid meet">
<metadata>
Created by potrace 1.14, written by Peter Selinger 2001-2017
</metadata>
<g transform="translate(0.000000,300.000000) scale(0.100000,-0.100000)"
fill="#000000" stroke="none">
<path d="M1348 2995 c-2 -2 -22 -6 -44 -9 -123 -14 -299 -62 -375 -102 -16 -8
-30 -14 -31 -13 -13 6 -182 -88 -264 -146 -336 -239 -555 -597 -619 -1015 -16
-107 -16 -339 1 -428 7 -37 15 -80 18 -97 16 -88 62 -224 112 -330 32 -70 123
-218 135 -223 5 -2 9 -8 9 -14 0 -14 91 -120 170 -197 65 -63 211 -178 240
-189 8 -3 17 -8 20 -11 22 -26 340 -171 340 -156 0 2 19 -3 43 -11 23 -8 58
-17 77 -20 19 -3 69 -12 110 -19 74 -13 365 -14 420 -1 13 3 42 8 64 12 22 3
44 7 47 10 4 2 24 6 45 10 43 6 199 63 284 102 98 46 228 130 324 212 61 51
179 177 222 235 16 22 32 42 37 43 4 2 7 8 7 12 0 5 13 29 29 53 67 98 171
342 186 433 3 16 13 70 23 121 23 112 26 330 6 458 -56 371 -247 709 -536 948
-147 122 -399 250 -567 288 -25 6 -55 13 -66 16 -11 2 -36 7 -55 10 -19 2 -51
8 -70 12 -35 7 -335 12 -342 6z"/>
</g>
</svg>
